<svg width="16" height="16" viewBox="0 0 16 16" fill="none" xmlns="http://www.w3.org/2000/svg">
<path d="M11.0001 4.99984V5.0065M2.66675 5.33317C2.66675 4.62593 2.9477 3.94765 3.4478 3.44755C3.94789 2.94746 4.62617 2.6665 5.33341 2.6665H10.6667C11.374 2.6665 12.0523 2.94746 12.5524 3.44755C13.0525 3.94765 13.3334 4.62593 13.3334 5.33317V10.6665C13.3334 11.3737 13.0525 12.052 12.5524 12.5521C12.0523 13.0522 11.374 13.3332 10.6667 13.3332H5.33341C4.62617 13.3332 3.94789 13.0522 3.4478 12.5521C2.9477 12.052 2.66675 11.3737 2.66675 10.6665V5.33317ZM6.00008 7.99984C6.00008 8.53027 6.21079 9.03898 6.58587 9.41405C6.96094 9.78912 7.46965 9.99984 8.00008 9.99984C8.53051 9.99984 9.03922 9.78912 9.4143 9.41405C9.78937 9.03898 10.0001 8.53027 10.0001 7.99984C10.0001 7.4694 9.78937 6.9607 9.4143 6.58562C9.03922 6.21055 8.53051 5.99984 8.00008 5.99984C7.46965 5.99984 6.96094 6.21055 6.58587 6.58562C6.21079 6.9607 6.00008 7.4694 6.00008 7.99984Z" stroke="#393939" stroke-width="1.2" stroke-linecap="round" stroke-linejoin="round"/>
</svg>
