<svg width="16" height="16" viewBox="0 0 16 16" fill="none" xmlns="http://www.w3.org/2000/svg">
<path d="M14.6666 2.67383C13.9999 3.0005 13.3466 3.13316 12.6666 3.33383C11.9193 2.4905 10.8113 2.44383 9.74659 2.8425C8.68192 3.24116 7.98459 4.21583 7.99992 5.33383V6.0005C5.83659 6.05583 3.90992 5.0705 2.66659 3.33383C2.66659 3.33383 -0.121415 8.28916 5.33325 10.6672C4.08525 11.4985 2.84059 12.0592 1.33325 12.0005C3.53859 13.2025 5.94192 13.6158 8.02259 13.0118C10.4093 12.3185 12.3706 10.5298 13.1233 7.8505C13.3478 7.03561 13.4593 6.19374 13.4546 5.3485C13.4546 5.1825 14.4613 3.5005 14.6666 2.67316V2.67383Z" stroke="#393939" stroke-width="1.2" stroke-linecap="round" stroke-linejoin="round"/>
</svg>
