<svg width="24" height="24" viewBox="0 0 24 24" fill="none" xmlns="http://www.w3.org/2000/svg">
<path d="M12.0002 1.99951C8.00619 1.99951 4.7569 5.24881 4.7569 9.24271C4.7569 14.1993 11.2389 21.4758 11.5149 21.7831C11.7741 22.0718 12.2267 22.0713 12.4855 21.7831C12.7614 21.4758 19.2434 14.1993 19.2434 9.24271C19.2433 5.24881 15.9941 1.99951 12.0002 1.99951ZM12.0002 12.887C9.99068 12.887 8.35592 11.2522 8.35592 9.24271C8.35592 7.23326 9.99072 5.59849 12.0002 5.59849C14.0096 5.59849 15.6444 7.2333 15.6444 9.24275C15.6444 11.2522 14.0096 12.887 12.0002 12.887Z" fill="black"/>
</svg>
