<svg width="57" height="57" viewBox="0 0 57 57" fill="none" xmlns="http://www.w3.org/2000/svg">
<path opacity="0.28" d="M28.4998 5.35168C15.7155 5.35168 5.35168 15.7155 5.35168 28.4998C5.35168 41.2842 15.7155 51.648 28.4998 51.648C41.2842 51.648 51.648 41.2842 51.648 28.4998C51.648 15.7155 41.2842 5.35168 28.4998 5.35168Z" fill="#6BE5FF"/>
<path opacity="0.28" d="M26.1742 31.8334H22.3333C18.4213 31.8334 15.25 35.0047 15.25 38.9167C15.25 41.2639 17.1528 43.1667 19.5 43.1667H28.8241C27.2171 41.66 25.1667 39.0766 25.1667 35.5915C25.1667 34.1674 25.5438 32.9021 26.1742 31.8334Z" fill="#00234C"/>
<path d="M20.9166 21.9167C20.9166 18.0047 24.0879 14.8334 28 14.8334C31.912 14.8334 35.0833 18.0047 35.0833 21.9167C35.0833 25.8287 31.912 29 28 29C24.0879 29 20.9166 25.8287 20.9166 21.9167Z" fill="#00234C"/>
<path d="M35.0789 31.4679C35.8054 31.0204 36.6211 30.859 37.3699 30.8696C39.7023 30.9024 42.1666 32.754 42.1666 35.5915C42.1666 38.144 40.5037 40.1552 39.0589 41.412C38.3083 42.0649 37.5399 42.5825 36.9102 42.942C36.5958 43.1215 36.301 43.2702 36.0466 43.379C35.9206 43.4329 35.7881 43.4841 35.6578 43.5243C35.5619 43.5538 35.3406 43.6191 35.0833 43.6191C34.826 43.6191 34.6047 43.5538 34.5088 43.5243C34.3785 43.4841 34.246 43.4329 34.12 43.379C33.8656 43.2702 33.5708 43.1215 33.2564 42.942C32.6267 42.5825 31.8583 42.0649 31.1077 41.412C29.6629 40.1552 28 38.144 28 35.5915C28 32.7695 30.4505 30.8694 32.8166 30.8694C33.5346 30.8694 34.3478 31.0236 35.0789 31.4679Z" fill="#00234C"/>
</svg>
