<svg width="57" height="57" viewBox="0 0 57 57" fill="none" xmlns="http://www.w3.org/2000/svg">
<path opacity="0.28" d="M28.4998 5.35168C15.7155 5.35168 5.35168 15.7155 5.35168 28.4998C5.35168 41.2842 15.7155 51.648 28.4998 51.648C41.2842 51.648 51.648 41.2842 51.648 28.4998C51.648 15.7155 41.2842 5.35168 28.4998 5.35168Z" fill="#EFFAFF"/>
<path d="M30.1092 19.1982C29.0632 18.8583 27.9364 18.8583 26.8903 19.1982C26.1891 19.426 25.6188 19.8212 25.0939 20.2668C24.5965 20.6891 24.0382 21.2474 23.3911 21.8945L21.8939 23.3917C21.2468 24.0388 20.6885 24.5971 20.2662 25.0945C19.8205 25.6195 19.4254 26.1897 19.1975 26.8909C18.8577 27.937 18.8577 29.0638 19.1975 30.1098C19.4254 30.811 19.8205 31.3813 20.2662 31.9063C20.6885 32.4037 21.2468 32.9619 21.8939 33.609L23.3911 35.1062C24.0382 35.7533 24.5965 36.3116 25.0939 36.7339C25.6188 37.1796 26.1891 37.5748 26.8903 37.8026C27.9364 38.1425 29.0632 38.1425 30.1092 37.8026C30.8104 37.5748 31.3807 37.1796 31.9057 36.7339C32.4031 36.3116 32.9613 35.7534 33.6084 35.1062L35.1056 33.609C35.7527 32.9619 36.311 32.4037 36.7333 31.9063C37.179 31.3813 37.5741 30.811 37.802 30.1098C38.1419 29.0638 38.1419 27.937 37.802 26.8909C37.5741 26.1897 37.179 25.6195 36.7333 25.0945C36.311 24.5971 35.7527 24.0388 35.1056 23.3917L33.6084 21.8945C32.9613 21.2474 32.4031 20.6891 31.9057 20.2668C31.3807 19.8212 30.8104 19.426 30.1092 19.1982Z" fill="#00234C"/>
</svg>
