<svg width="23" height="23" viewBox="0 0 23 23" fill="none" xmlns="http://www.w3.org/2000/svg">
<path d="M20.74 8.75829V4.58149C20.74 3.28429 20.1512 2.75989 18.6884 2.75989H14.9716C13.5088 2.75989 12.92 3.28429 12.92 4.58149V8.74909C12.92 10.0555 13.5088 10.5707 14.9716 10.5707H18.6884C20.1512 10.5799 20.74 10.0555 20.74 8.75829Z" stroke="#595959" stroke-width="1.38" stroke-linecap="round" stroke-linejoin="round"/>
<path d="M20.74 19.1084V15.3916C20.74 13.9288 20.1512 13.34 18.6884 13.34H14.9716C13.5088 13.34 12.92 13.9288 12.92 15.3916V19.1084C12.92 20.5712 13.5088 21.16 14.9716 21.16H18.6884C20.1512 21.16 20.74 20.5712 20.74 19.1084Z" stroke="#595959" stroke-width="1.38" stroke-linecap="round" stroke-linejoin="round"/>
<path d="M10.16 8.75829V4.58149C10.16 3.28429 9.5712 2.75989 8.1084 2.75989H4.3916C2.9288 2.75989 2.34 3.28429 2.34 4.58149V8.74909C2.34 10.0555 2.9288 10.5707 4.3916 10.5707H8.1084C9.5712 10.5799 10.16 10.0555 10.16 8.75829Z" stroke="#595959" stroke-width="1.38" stroke-linecap="round" stroke-linejoin="round"/>
<path d="M10.16 19.1084V15.3916C10.16 13.9288 9.5712 13.34 8.1084 13.34H4.3916C2.9288 13.34 2.34 13.9288 2.34 15.3916V19.1084C2.34 20.5712 2.9288 21.16 4.3916 21.16H8.1084C9.5712 21.16 10.16 20.5712 10.16 19.1084Z" stroke="#595959" stroke-width="1.38" stroke-linecap="round" stroke-linejoin="round"/>
</svg>
