<svg width="25" height="24" viewBox="0 0 25 24" fill="none" xmlns="http://www.w3.org/2000/svg">
<path d="M18.5 7.16C18.44 7.15 18.37 7.15 18.31 7.16C16.93 7.11 15.83 5.98 15.83 4.58C15.83 3.15 16.98 2 18.41 2C19.84 2 20.99 3.16 20.99 4.58C20.98 5.98 19.88 7.11 18.5 7.16Z" stroke="#595959" stroke-width="1.5" stroke-linecap="round" stroke-linejoin="round"/>
<path d="M17.47 14.44C18.84 14.67 20.35 14.43 21.41 13.72C22.82 12.78 22.82 11.24 21.41 10.3C20.34 9.59004 18.81 9.35003 17.44 9.59003" stroke="#595959" stroke-width="1.5" stroke-linecap="round" stroke-linejoin="round"/>
<path d="M6.46998 7.16C6.52998 7.15 6.59998 7.15 6.65998 7.16C8.03998 7.11 9.13998 5.98 9.13998 4.58C9.13998 3.15 7.98998 2 6.55998 2C5.12998 2 3.97998 3.16 3.97998 4.58C3.98998 5.98 5.08998 7.11 6.46998 7.16Z" stroke="#595959" stroke-width="1.5" stroke-linecap="round" stroke-linejoin="round"/>
<path d="M7.5 14.44C6.13 14.67 4.62 14.43 3.56 13.72C2.15 12.78 2.15 11.24 3.56 10.3C4.63 9.59004 6.16 9.35003 7.53 9.59003" stroke="#595959" stroke-width="1.5" stroke-linecap="round" stroke-linejoin="round"/>
<path d="M12.5 14.63C12.44 14.62 12.37 14.62 12.31 14.63C10.93 14.58 9.82996 13.45 9.82996 12.05C9.82996 10.62 10.98 9.46997 12.41 9.46997C13.84 9.46997 14.99 10.63 14.99 12.05C14.98 13.45 13.88 14.59 12.5 14.63Z" stroke="#595959" stroke-width="1.5" stroke-linecap="round" stroke-linejoin="round"/>
<path d="M9.58997 17.78C8.17997 18.72 8.17997 20.26 9.58997 21.2C11.19 22.27 13.81 22.27 15.41 21.2C16.82 20.26 16.82 18.72 15.41 17.78C13.82 16.72 11.19 16.72 9.58997 17.78Z" stroke="#595959" stroke-width="1.5" stroke-linecap="round" stroke-linejoin="round"/>
</svg>
