<svg width="16" height="16" viewBox="0 0 16 16" fill="none" xmlns="http://www.w3.org/2000/svg">
<path d="M5.33341 7.33317V10.6665M5.33341 5.33317V5.33984M8.00008 10.6665V7.33317M10.6667 10.6665V8.6665C10.6667 8.31288 10.5263 7.97374 10.2762 7.7237C10.0262 7.47365 9.68704 7.33317 9.33341 7.33317C8.97979 7.33317 8.64065 7.47365 8.39061 7.7237C8.14056 7.97374 8.00008 8.31288 8.00008 8.6665M2.66675 3.99984C2.66675 3.64622 2.80722 3.30708 3.05727 3.05703C3.30732 2.80698 3.64646 2.6665 4.00008 2.6665H12.0001C12.3537 2.6665 12.6928 2.80698 12.9429 3.05703C13.1929 3.30708 13.3334 3.64622 13.3334 3.99984V11.9998C13.3334 12.3535 13.1929 12.6926 12.9429 12.9426C12.6928 13.1927 12.3537 13.3332 12.0001 13.3332H4.00008C3.64646 13.3332 3.30732 13.1927 3.05727 12.9426C2.80722 12.6926 2.66675 12.3535 2.66675 11.9998V3.99984Z" stroke="#393939" stroke-width="1.2" stroke-linecap="round" stroke-linejoin="round"/>
</svg>
