<svg width="20" height="20" viewBox="0 0 20 20" fill="none" xmlns="http://www.w3.org/2000/svg">
<path opacity="0.28" d="M2.51941 9.96729C2.5 10.4119 2.5 10.9584 2.5 11.6667C2.5 13.2177 2.5 13.9933 2.70393 14.6209C3.11609 15.8894 4.1106 16.8839 5.3791 17.2961C6.00673 17.5 6.78227 17.5 8.33333 17.5H11.6667C13.2177 17.5 13.9933 17.5 14.6209 17.2961C15.8894 16.8839 16.8839 15.8894 17.2961 14.6209C17.5 13.9933 17.5 13.2177 17.5 11.6667C17.5 10.9584 17.5 10.4119 17.4806 9.96729" stroke="#00234C" stroke-width="2" stroke-linecap="round" stroke-linejoin="round"/>
<path d="M13.3333 5.85136V5.83333C13.3333 5.05836 13.3333 4.67087 13.2481 4.35295C13.017 3.49022 12.3431 2.81635 11.4804 2.58519C11.1625 2.5 10.775 2.5 9.99999 2.5C9.22502 2.5 8.83753 2.5 8.51961 2.58519C7.65688 2.81635 6.98301 3.49022 6.75185 4.35295C6.66666 4.67087 6.66666 5.05836 6.66666 5.83333V5.85136M13.3333 5.85136C12.8947 5.83333 12.3576 5.83333 11.6667 5.83333H8.33333C7.64236 5.83333 7.1053 5.83333 6.66666 5.85136M13.3333 5.85136C13.8793 5.8738 14.2729 5.92418 14.6209 6.03726C15.8894 6.44942 16.8839 7.44394 17.2961 8.71243C17.4069 9.05348 17.4575 9.43819 17.4806 9.96728C17.2883 11.858 15.6914 13.3333 13.75 13.3333H6.24999C4.30855 13.3333 2.71169 11.858 2.51941 9.96728C2.54251 9.43819 2.59311 9.05348 2.70393 8.71243C3.11608 7.44394 4.1106 6.44942 5.37909 6.03726C5.72713 5.92418 6.12065 5.8738 6.66666 5.85136M9.99999 12.5V13.3333V14.1667" stroke="#00234C" stroke-width="2" stroke-linecap="round" stroke-linejoin="round"/>
</svg>
