<svg width="16" height="16" viewBox="0 0 16 16" fill="none" xmlns="http://www.w3.org/2000/svg">
<g clip-path="url(#clip0_54_45)">
<path d="M7.99998 14.6667C11.6819 14.6667 14.6666 11.6819 14.6666 8.00001C14.6666 4.31811 11.6819 1.33334 7.99998 1.33334C4.31808 1.33334 1.33331 4.31811 1.33331 8.00001C1.33331 11.6819 4.31808 14.6667 7.99998 14.6667Z" stroke="#E9FAFF" stroke-linecap="round" stroke-linejoin="round"/>
<path d="M6.33331 5.9769C6.33331 5.65871 6.33331 5.49961 6.39981 5.4108C6.45775 5.33339 6.54646 5.28497 6.6429 5.27808C6.75357 5.27017 6.8874 5.35621 7.15505 5.52827L10.3021 7.55138C10.5344 7.70069 10.6505 7.77534 10.6906 7.87027C10.7257 7.95321 10.7257 8.04681 10.6906 8.12975C10.6505 8.22468 10.5344 8.29933 10.3021 8.44864L7.15505 10.4718C6.8874 10.6438 6.75357 10.7298 6.6429 10.7219C6.54646 10.7151 6.45775 10.6666 6.39981 10.5892C6.33331 10.5004 6.33331 10.3413 6.33331 10.0231V5.9769Z" stroke="#E9FAFF" stroke-linecap="round" stroke-linejoin="round"/>
</g>
<defs>
<clipPath id="clip0_54_45">
<rect width="16" height="16" fill="white"/>
</clipPath>
</defs>
</svg>
